<?xml version="1.0" encoding="utf-8"?>
<!DOCTYPE svg PUBLIC "-//W3C//DTD SVG 1.1//EN" "http://www.w3.org/Graphics/SVG/1.1/DTD/svg11.dtd">
<svg version="1.1" xmlns="http://www.w3.org/2000/svg" xmlns:xlink="http://www.w3.org/1999/xlink" x="0px" y="0px"
	 width="50px" height="50px" viewBox="0 0 595.28 841.89" enable-background="new 0 0 595.28 841.89" xml:space="preserve">
	<rect width="595.28" height="841.89"/>
<rect x="-50000" y="-50000" width="100000" height="100000" fill="#000000" /><g id="Layer_2">
	<path fill="#FFFFFF" d="M299.847,599c-4.64,1-5.154-19-22.154-21s-27,13-30,13s1-15-10-22s-27,3-29,0s-2-21-7-42s-30-35-60-45
		s-39.629-18.911-35-39c5.75-24.956,44.25-16,46.037-19.055c1.138-1.945,0.638-3.49-0.537-4.445
		c-3.042-2.474-9.871,0.796-16.5-1.456c-20-6.794-32-59.044-32-123.044c0-143,116.154-178,196.154-178S496,148,496,295
		c0,64-12,116.25-32,123.044c-6.629,2.252-13.458-1.019-16.5,1.456c-1.175,0.956-1.675,2.5-0.537,4.445
		C448.75,427,487.25,418.044,493,443c4.629,20.089-5,29-35,39s-55,24-60,45s-5,39-7,42s-18-7-29,0s-7,22-10,22s-13-15-30-13
		S304.486,600,299.847,599z M173,329c-10,17-11,33,7,54s47,23,59,21s40-26,41.053-50S247.838,309.551,212,306
		C199.378,304.75,183,312,173,329z M387.955,306c-35.838,3.551-69.105,24-68.053,48s29.053,48,41.053,50s41,0,59-21s17-37,7-54
		S400.576,304.75,387.955,306z M316,496c12,0,12,0,18-12c7.823-15.646-21-55-35-55s-42.823,39.354-35,55c6,12,6,12,18,12
		s13-13,17-13S304,496,316,496z"/>
	<path fill="#FFFFFF" d="M233,572.5c9.395,4.793,8.5,16.5,8,19.5s-23.5,87-35.5,89.5s-10.5,2.5-16.5,0s-30-34-26.5-51s9.5-21,13-24
		c4.329-3.71,28.5-29,35.5-31.5C217.856,572.552,229.746,570.84,233,572.5z"/>
	<path fill="#FFFFFF" d="M276.436,582.779C285.5,584,292.79,599.833,294,607.5s5.757,53.24,4.272,62.636
		c-1.485,9.397-5.37,39.574-9.403,41.164c-4.034,1.589-46.408,2.166-51.566-1.389c-5.159-3.556-20.634-14.222-22.104-19.402
		S246,600.5,251.847,595.73C256.725,591.752,268.493,581.71,276.436,582.779z"/>
	<path fill="#FFFFFF" d="M367.081,571.5c-9.395,4.793-8.5,17.5-8,20.5s25.5,81,37.5,83.5s10.5,2.5,16.5,0s29-37,25.5-54
		S424.926,600.103,418,595c-9.5-7-22.5-18-28.919-20C386.217,574.107,370.335,569.84,367.081,571.5z"/>
	<path fill="#FFFFFF" d="M322.785,583.822c-5.97,0.604-15.53,16.953-16.285,24.678c-0.756,7.725-2.278,54.578-0.242,63.871
		c2.037,9.292,4.929,40.121,9.049,41.47c4.121,1.349,49.219-1.565,54.159-5.42c4.939-3.853,18.759-15.413,19.92-20.673
		c1.162-5.258-35.886-86.248-42.233-92.508C340.658,588.836,330.761,583.016,322.785,583.822z"/>
</g>
</svg>
